<svg version="1.0" xmlns="http://www.w3.org/2000/svg" width="3200" height="3197.333" viewBox="0 0 2400 2398"><path d="M775.5 100.1c-150.4 4.2-263.6 19.5-349.5 47.4-29.5 9.6-49.6 17.8-75.4 30.7-99 49.5-163.2 127.4-201.4 244.8-29.1 89.2-43.9 198.7-48.2 357-1.3 47.1-1.3 790.9 0 838 2.1 76.7 6 134.3 13.1 190.5 27.2 218.6 98.3 342.1 236.6 411.4 83.3 41.7 193.2 65.4 345.3 74.6 66.8 4 70.5 4 503.5 4 433.1 0 439.9-.1 505-4.1 325.5-20 475.1-106.7 545.1-315.9 27.8-83.2 42.1-180.1 48.6-329.5 1.9-42.9 1.9-857.1 0-900-5.5-126.2-15.4-206.2-35.2-283.5-19.6-76.8-47.6-136.9-86.5-186-71.3-89.9-182.9-141.8-354.5-164.9-46.5-6.3-91.2-10-167.5-13.8-27-1.3-832.9-2-879-.7zm-77 698.9c15.8 2.3 27.8 8.6 36.6 19.4 6.7 8.1 15.5 26.3 22.8 47.1 22.3 63.9 45.8 119.4 76.2 180.5 62.7 125.8 129.5 218.2 172.9 238.9 6.7 3.2 8.3 3.6 15.5 3.5 15.2-.1 21.6-6.3 26.3-25.2 1.4-6 1.6-20.6 2-141.7.2-94.6 0-138-.8-145-2.7-24.5-8.5-45.8-17.5-64-6.4-13.1-11.8-21.4-25.2-38.3-16-20.3-19.4-27.1-19.4-39.2-.1-17.4 13.2-32.4 31.6-36 4.4-.8 42.4-1 139.5-.8l133.5.3 6.7 2.3c12.3 4.1 19.5 12.9 24.1 29l2.2 7.7.5 176.5c.5 163.4.7 176.9 2.3 182.3 3.5 11.8 8.8 19.1 16.3 22.8 11.8 5.7 31.7-2.6 54.9-22.7 22-19.1 42.1-41.6 68-76.3 52.4-69.9 108.2-168.5 151.5-267.2 4.2-9.7 9.8-20.8 12.4-24.7 9.2-13.9 23.8-24 40.3-27.9 7.3-1.7 14.3-1.8 101.8-1.8 100.8 0 99.7-.1 111.3 5.1 12.5 5.5 19.1 15.1 20 28.8 1.3 20.6-11.9 57.5-39.3 109.6-33.1 62.9-94.8 161-163.2 259.8-19.3 27.8-21.2 30.7-25.8 39.8-9.2 18-8.1 30.3 4.4 48.8 8.6 12.7 15.7 20.3 56.6 61.1 37.7 37.6 59.7 61.4 97.1 105.5 56.8 66.8 88.3 114.3 97.6 146.8 2.9 10.1 3.2 28.2.5 35.7-5.7 16.3-21.7 26.1-46.4 28.5-14.9 1.4-170 1.3-181.8-.1-22.6-2.7-39.9-12.6-63.5-36.1-6.2-6.2-23.9-25.2-39.3-42.2-57.2-63-87.5-93.3-124.2-124-53.1-44.2-87.2-60.7-119.2-57.7-17.9 1.8-25.6 8-29.9 24.1-1.6 5.8-1.8 15.8-2.4 98.5-.6 99.6-.5 96.7-6.1 107.7-4.9 9.6-17.1 18.1-32.4 22.6-32.4 9.6-97.2 10.3-148.2 1.7-144.5-24.4-283.5-114.1-391.8-253-20.8-26.7-72.3-102-98.2-143.5-17.4-28.1-22-35.7-37.3-62.5-59.8-104.5-103.9-203.7-128.6-289.4-13.3-46.1-16.9-73.8-11.6-89.3 5.1-14.7 18.7-23.7 39.2-26.1 8.1-.9 180.9-.6 187.5.3z"/></svg>