<svg version="1.0" xmlns="http://www.w3.org/2000/svg" width="266.667" height="266.667" viewBox="0 0 200 200"><path d="M92.4 31c-10.8 2.3-21.5 10.8-26.2 20.8-2.4 5-2.7 6.9-2.7 16.2 0 10 .1 10.8 3.4 16.8 4.1 7.5 10.3 13.5 17.9 17 4.9 2.3 7 2.7 15.2 2.7s10.3-.4 15.2-2.7c7.6-3.5 13.8-9.5 17.9-17 3.3-6 3.4-6.8 3.4-16.8 0-9.3-.3-11.2-2.7-16.2-7-15-25.4-24.2-41.4-20.8zm21.9 7.5c14.5 6.8 21.7 24.6 16.4 40.2-2.3 6.6-9.4 14.6-16.1 18.1-4.5 2.4-6.2 2.7-14.6 2.7-8.4 0-10.1-.3-14.6-2.7-2.8-1.5-7.2-5-9.7-7.8-16.2-18-7.1-47 16.7-53.1 5.6-1.5 16-.2 21.9 2.6z"/><path d="M79 65.5V81h42V50H79v15.5zm37 0V76H84V55h32v10.5z"/><path d="M102 63.5L97.6 68l-2.3-2.2c-1.8-1.7-2.6-1.9-3.5-1-1 1-.5 2 2.3 4.7l3.4 3.5 5.9-5.9c3.2-3.3 5.5-6.4 5.2-7-1.1-1.8-1.9-1.4-6.6 3.4zM90 87c0 1.9.7 2 10 2s10-.1 10-2-.7-2-10-2-10 .1-10 2zM7.2 127.7l.3 11.8 3.3.3 3.2.3v-12.5l2 2.2c1.7 1.8 2.5 2 4 1.2 1.1-.6 2.1-1.6 2.2-2.3.1-.7.4 1.5.7 4.8.6 5.9.7 6 3.9 6.3l3.2.3V116h-3.4c-2.9 0-3.7.6-5.6 3.7l-2.2 3.8-2.2-3.7c-1.8-3.3-2.6-3.8-5.9-3.8H6.9l.3 11.7zm28 0l.3 11.8 8.3.3 8.2.3V133h-5c-5.8 0-6.8-1.7-1.2-2.2 3.2-.3 3.7-.7 4-3.1.3-2.6.1-2.7-3.7-2.7-3 0-4.1-.4-4.1-1.5s1.2-1.5 5-1.5c4.9 0 5-.1 5-3v-3H34.9l.3 11.7zm23-10.1c-2 1.4-2.2 2.4-2.2 9.7 0 4.5.4 8.7.8 9.4 1.3 2 6.1 3.3 12.3 3.3H75v-13h-3.5c-3.2 0-3.5.2-3.5 3 0 2.5-.4 3-2.6 3-2.4 0-2.5-.2-2.2-5.3l.3-5.2 4.8-.3c4.5-.3 4.7-.5 4.7-3.3V116h-6.3c-4 0-7 .5-8.5 1.6zm22.9 4.4c-1.5 4.2-2.1 7.7-1.9 11.7.3 5.7.3 5.8 3.3 5.8 2.5 0 3-.4 3.3-2.8.3-2.2.8-2.7 3.2-2.7 2.4 0 2.9.5 3.2 2.7.3 2.4.8 2.8 3.3 2.8 3 0 3-.1 3.3-5.8.2-4-.4-7.5-1.9-11.7l-2.2-6H83.3l-2.2 6zm9.3 2.2c.9 3.5.8 3.8-1.8 3.8-2.3 0-2.4-.2-1.5-3 1.3-3.6 2.4-3.8 3.3-.8zm12.8 3.5l.3 11.8 7 .3c9.4.3 11.9-1 12.3-6.6.2-2.5-.2-5-.9-5.9-.7-.8-1.2-3.2-1-5.3.3-5-1.5-6-10.9-6h-7.1l.3 11.7zm11.6-4.5c-.7 1.9-3.8 2.2-3.8.4 0-1 .9-1.6 2.1-1.6 1.2 0 1.9.5 1.7 1.2zm1.2 8.8c0 1.5-.7 2-2.5 2s-2.5-.5-2.5-2 .7-2 2.5-2 2.5.5 2.5 2zm11.2-4.3l.3 11.8h18l.3-6.3.3-6.2h-3.6c-3.2 0-3.5.2-3.5 3 0 2.5-.4 3-2.5 3-2.5 0-2.5-.1-2.5-8.5V116h-7.1l.3 11.7zm24.3-10.3c-1.6 1.2-2 2.9-2.3 9.5-.4 7.5-.2 8.1 2.2 10.5 2.1 2.2 3.4 2.6 8.1 2.6 4.7 0 6-.4 8.1-2.6 2.4-2.4 2.6-3 2.2-10.5-.4-9.8-1.4-10.9-10.3-10.9-3.7 0-6.9.6-8 1.4zm10.3 10.3c-.3 5-.6 5.8-2.3 5.8-1.7 0-2-.8-2.3-5.8-.3-5.6-.2-5.7 2.3-5.7s2.6.1 2.3 5.7zm14.1-9.8c-2.2 1.7-2.4 2.7-2.4 10 0 10.6.8 11.5 11.2 11.5l7.8.1.3-6.3.3-6.2h-3.6c-3.2 0-3.5.2-3.5 3 0 2.5-.4 3-2.6 3-2.4 0-2.5-.2-2.2-5.3l.3-5.2 4.8-.3c4.5-.3 4.7-.5 4.7-3.3V116h-6.4c-4.8 0-7 .5-8.7 1.9z"/></svg>