<?xml version="1.0" standalone="no"?>
<!DOCTYPE svg PUBLIC "-//W3C//DTD SVG 20010904//EN"
 "http://www.w3.org/TR/2001/REC-SVG-20010904/DTD/svg10.dtd">
<svg version="1.0" xmlns="http://www.w3.org/2000/svg"
 width="200.000000pt" height="200.000000pt" viewBox="0 0 200.000000 200.000000"
 preserveAspectRatio="xMidYMid meet">

<g transform="translate(0.000000,200.000000) scale(0.100000,-0.100000)"
fill="#000000" stroke="none">
<path d="M924 1690 c-108 -23 -215 -108 -262 -208 -24 -50 -27 -69 -27 -162 0
-100 1 -108 34 -168 41 -75 103 -135 179 -170 49 -23 70 -27 152 -27 82 0 103
4 152 27 76 35 138 95 179 170 33 60 34 68 34 168 0 93 -3 112 -27 162 -70
150 -254 242 -414 208z m219 -75 c145 -68 217 -246 164 -402 -23 -66 -94 -146
-161 -181 -45 -24 -62 -27 -146 -27 -84 0 -101 3 -146 27 -28 15 -72 50 -97
78 -162 180 -71 470 167 531 56 15 160 2 219 -26z"/>
<path d="M790 1345 l0 -155 210 0 210 0 0 155 0 155 -210 0 -210 0 0 -155z
m370 0 l0 -105 -160 0 -160 0 0 105 0 105 160 0 160 0 0 -105z"/>
<path d="M1020 1365 l-44 -45 -23 22 c-18 17 -26 19 -35 10 -10 -10 -5 -20 23
-47 l34 -35 59 59 c32 33 55 64 52 70 -11 18 -19 14 -66 -34z"/>
<path d="M900 1130 c0 -19 7 -20 100 -20 93 0 100 1 100 20 0 19 -7 20 -100
20 -93 0 -100 -1 -100 -20z"/>
<path d="M72 723 l3 -118 33 -3 32 -3 0 62 0 63 20 -22 c17 -18 25 -20 40 -12
11 6 21 16 22 23 1 7 4 -15 7 -48 6 -59 7 -60 39 -63 l32 -3 0 120 0 121 -34
0 c-29 0 -37 -6 -56 -37 l-22 -38 -22 37 c-18 33 -26 38 -59 38 l-38 0 3 -117z"/>
<path d="M352 723 l3 -118 83 -3 82 -3 0 36 0 35 -50 0 c-58 0 -68 17 -12 22
32 3 37 7 40 31 3 26 1 27 -37 27 -30 0 -41 4 -41 15 0 11 12 15 50 15 49 0
50 1 50 30 l0 30 -85 0 -86 0 3 -117z"/>
<path d="M582 824 c-20 -14 -22 -24 -22 -97 0 -45 4 -87 8 -94 13 -20 61 -33
123 -33 l59 0 0 65 0 65 -35 0 c-32 0 -35 -2 -35 -30 0 -25 -4 -30 -26 -30
-24 0 -25 2 -22 53 l3 52 48 3 c45 3 47 5 47 33 l0 29 -63 0 c-40 0 -70 -5
-85 -16z"/>
<path d="M811 780 c-15 -42 -21 -77 -19 -117 3 -57 3 -58 33 -58 25 0 30 4 33
28 3 22 8 27 32 27 24 0 29 -5 32 -27 3 -24 8 -28 33 -28 30 0 30 1 33 58 2
40 -4 75 -19 117 l-22 60 -57 0 -57 0 -22 -60z m93 -22 c9 -35 8 -38 -18 -38
-23 0 -24 2 -15 30 13 36 24 38 33 8z"/>
<path d="M1032 723 l3 -118 70 -3 c94 -3 119 10 123 66 2 25 -2 50 -9 59 -7 8
-12 32 -10 53 3 50 -15 60 -109 60 l-71 0 3 -117z m116 45 c-7 -19 -38 -22
-38 -4 0 10 9 16 21 16 12 0 19 -5 17 -12z m12 -88 c0 -15 -7 -20 -25 -20 -18
0 -25 5 -25 20 0 15 7 20 25 20 18 0 25 -5 25 -20z"/>
<path d="M1272 723 l3 -118 90 0 90 0 3 63 3 62 -36 0 c-32 0 -35 -2 -35 -30
0 -25 -4 -30 -25 -30 -25 0 -25 1 -25 85 l0 85 -35 0 -36 0 3 -117z"/>
<path d="M1515 826 c-16 -12 -20 -29 -23 -95 -4 -75 -2 -81 22 -105 21 -22 34
-26 81 -26 47 0 60 4 81 26 24 24 26 30 22 105 -4 98 -14 109 -103 109 -37 0
-69 -6 -80 -14z m103 -103 c-3 -50 -6 -58 -23 -58 -17 0 -20 8 -23 58 -3 56
-2 57 23 57 25 0 26 -1 23 -57z"/>
<path d="M1759 821 c-22 -17 -24 -27 -24 -100 0 -106 8 -115 112 -115 l78 -1
3 63 3 62 -36 0 c-32 0 -35 -2 -35 -30 0 -25 -4 -30 -26 -30 -24 0 -25 2 -22
53 l3 52 48 3 c45 3 47 5 47 33 l0 29 -64 0 c-48 0 -70 -5 -87 -19z"/>
</g>
</svg>
