<?xml version="1.0" standalone="no"?>
<!DOCTYPE svg PUBLIC "-//W3C//DTD SVG 20010904//EN"
 "http://www.w3.org/TR/2001/REC-SVG-20010904/DTD/svg10.dtd">
<svg version="1.0" xmlns="http://www.w3.org/2000/svg"
 width="2400.000000pt" height="2398.000000pt" viewBox="0 0 2400.000000 2398.000000"
 preserveAspectRatio="xMidYMid meet">

<g transform="translate(0.000000,2398.000000) scale(0.100000,-0.100000)"
fill="000000" stroke="none">
<path d="M7755 22979 c-1504 -42 -2636 -195 -3495 -474 -295 -96 -496 -178
-754 -307 -990 -495 -1632 -1274 -2014 -2448 -291 -892 -439 -1987 -482 -3570
-13 -471 -13 -7909 0 -8380 21 -767 60 -1343 131 -1905 272 -2186 983 -3421
2366 -4114 833 -417 1932 -654 3453 -746 668 -40 705 -40 5035 -40 4331 0
4399 1 5050 41 3255 200 4751 1067 5451 3159 278 832 421 1801 486 3295 19
429 19 8571 0 9000 -55 1262 -154 2062 -352 2835 -196 768 -476 1369 -865
1860 -713 899 -1829 1418 -3545 1649 -465 63 -912 100 -1675 138 -270 13
-8329 20 -8790 7z m-770 -6989 c158 -23 278 -86 366 -194 67 -81 155 -263 228
-471 223 -639 458 -1194 762 -1805 627 -1258 1295 -2182 1729 -2389 67 -32 83
-36 155 -35 152 1 216 63 263 252 14 60 16 206 20 1417 2 946 0 1380 -8 1450
-27 245 -85 458 -175 640 -64 131 -118 214 -252 383 -160 203 -194 271 -194
392 -1 174 132 324 316 360 44 8 424 10 1395 8 l1335 -3 67 -23 c123 -41 195
-129 241 -290 l22 -77 5 -1765 c5 -1634 7 -1769 23 -1823 35 -118 88 -191 163
-228 118 -57 317 26 549 227 220 191 421 416 680 763 524 699 1082 1685 1515
2672 42 97 98 208 124 247 92 139 238 240 403 279 73 17 143 18 1018 18 1008
0 997 1 1113 -51 125 -55 191 -151 200 -288 13 -206 -119 -575 -393 -1096
-331 -629 -948 -1610 -1632 -2598 -193 -278 -212 -307 -258 -398 -92 -180 -81
-303 44 -488 86 -127 157 -203 566 -611 377 -376 597 -614 971 -1055 568 -668
883 -1143 976 -1468 29 -101 32 -282 5 -357 -57 -163 -217 -261 -464 -285
-149 -14 -1700 -13 -1818 1 -226 27 -399 126 -635 361 -62 62 -239 252 -393
422 -572 630 -875 933 -1242 1240 -531 442 -872 607 -1192 577 -179 -18 -256
-80 -299 -241 -16 -58 -18 -158 -24 -985 -6 -996 -5 -967 -61 -1077 -49 -96
-171 -181 -324 -226 -324 -96 -972 -103 -1482 -17 -1445 244 -2835 1141 -3918
2530 -208 267 -723 1020 -982 1435 -174 281 -220 357 -373 625 -598 1045
-1039 2037 -1286 2894 -133 461 -169 738 -116 893 51 147 187 237 392 261 81
9 1809 6 1875 -3z"/>
</g>
</svg>
